<svg xmlns="http://www.w3.org/2000/svg" viewBox="0 0 237.96 248.57"><g id="Слой_2" data-name="Слой 2"><g id="Layer_1" data-name="Layer 1"><path d="M154.63,240a77.7,77.7,0,0,1-22.31,7.75c-1.22.26-3.2,1.58-4.13-.95-.24-.63-1.25-.11-1.89,0-9.81,1.07-19.62,2.11-29.52,1.73-21.76-.86-42-6.42-59.89-19.24-17.65-12.68-30.21-29-35.27-50.53a51.77,51.77,0,0,1-.42-23.84c.1-.46.08-1,1.19-1.31-3.35,21,2.95,39.19,16.2,55.1,13,15.68,29.44,25.86,49.75,29.27a15.5,15.5,0,0,0-5.61-4.05c-15-6.81-23.61-18.66-27.19-34.42-1.2-5.26-2-10.61-3-15.91-.94-5-3.8-9.06-6.28-13.32-5.85-10.06-8.3-21.33-11.76-32,.89-1.07,1.56.18,2.38-.77-2.36-6.17-4.76-12.6-3.8-20.34,1.77,3.65,2.4,7.2,5.38,10.19-.53-9.74-3.74-18.78-1.47-28.09.57,2-.19,4.24,1.5,6.1,1.36-2,.38-4.28,1.2-6.22.64-1.49-.93-4.09,2.31-4.58,1-10.07,1.67-20.48,5.75-31,1.18,2.42-.73,4.32.69,6.58,2-4.75,3.87-9.18,5.79-13.57a47,47,0,0,1,8.07-12.69c1.13,2.21,1.84,1.21,2.7-.16a140.6,140.6,0,0,1,14.26-19A26.32,26.32,0,0,1,65,19.81c-.12,2.55-2.23,3.8-2.81,6,1.57.4,2.42-.67,3.38-1.3,5.8-3.82,10-9.41,15.19-13.91A52.57,52.57,0,0,1,97.24.92,3.86,3.86,0,0,1,100,.61C97.9,4.67,93,6,91.07,10.11c1.51,1.57,2.81.5,4.08-.33A69.28,69.28,0,0,1,117.8.31c2.45-.56,2.45-.55,3.74,1.71,6.16-.85,12.32-2.16,18.69-1.09-3.69,1.88-8.2,1.42-11.59,4.19,6.91-.8,13.74-2.42,21-1.74-6.34,3.6-12.72,7.05-18.16,12.27,3.12,2.39,7.14-.05,10.57,2.28-8.61,3.72-18.14,4.6-26.18,10.84l6.88,1c-7.9,3.64-16.4,6-23.17,12.16l11-1.36c-1,2-2.47,2.29-3.69,2.88C94,49.66,84.46,59.07,79.13,72.54a45.43,45.43,0,0,0-2.55,13c-.08.91.32,1.91-.79,3.18-1.68-7.73-.6-15,1.17-22.09a1.32,1.32,0,0,0-1.67.83c-4.06,7.25-7,14.8-6.92,23.35.06,7.33,2.62,13.17,8.89,17.2.63.41,1.37.74,1.65,1.58-.53.84-1.15.28-1.74.13-7.87-2-12.92-7-15.58-14.62C55.92,78.94,58.88,64,67.73,49.69c8.75-14.09,20.83-24.56,34.92-33,.77-.46,1.84-.67,2.12-1.79-6.18.7-24.44,14.1-33.27,26.18C62.89,52.9,55.73,65.29,55.87,80.63c-3-8.54-1.65-17.06-.32-25.63C46.69,67.51,42,81.19,43.22,97.44c.05-.34-.18-.09-.66-.15a1,1,0,0,0-1.14.49c1,6,5.42,9.81,10,13.81-4-.2-11.08-6.09-14.33-13.64-1.54.76-1.15,2-.88,3.19,2,9,6.71,15.73,15.59,19.08a4.86,4.86,0,0,1,.75.5c-5.51,1-12.67-5.27-19.19-16.67-1.43,2.72.45,10.45,3.79,15.19,3.19,4.53,7.57,7.63,13.06,10-3,.27-7.34-1.65-11.52-4.76-3.33-2.47-5.78-5.79-8.64-8.86A25.16,25.16,0,0,0,34,129.77a32.47,32.47,0,0,0,10.5,10.52c-3,0-4.88-2.09-7.16-3.4s-3.53-3.72-6.72-5.2a27.72,27.72,0,0,0,9,14.48c-2.82-.18-4.74-2-7.51-3.94.52,5.8,4.53,8.61,7.23,12.77-2.74-.41-3.48-4.06-6.22-3.08-.38,1.32.54,2,.75,2.94.34,1.46,2.64,2.52.93,4.51-.13.15.81,1.44,1.44,2,1.94,1.7,4,3.29,6.37,5.24-2.72.22-4.56-1.07-7.31-2,2.79,5.28,6.91,7.87,11.74,10.18-2.1,1.08-4.24-.19-6.24.88,1.5,2.8,4.54,3.32,7.21,5.05-2.65,2.28-5.5,4.46-4.56,9,3.2-2,6.16-4.26,10.84-4.33-5.26,4.5-6.34,9.94-5.37,15.73a26.64,26.64,0,0,0,7.31,15c-.7-3.18-2.2-6-2.79-9.29-1.15-6.29.27-11.69,4.58-16.35,3-3.27,6.27-6.35,9.12-9.76,3.64-4.38,6.35-9.25,6.27-15.23a14.12,14.12,0,0,0-1.13-5.06c-.72-1.84-2.32-3.39-1.13-5.79.52-1.05-.49-2.39-1.66-3.11s-2.29-1.39-3.41-2.06c.06-1,1.52-.64,1.39-1.94-1.06-1.54-3.26-.82-4.88-1.79.41-1.71,1.54-1.87,3-1.77,7.7.49,13.86,6.74,15.09,15.55.44,3.17.67,6.3-1.41,9.17-.55.76-.36,2.05-.54,3.1-1.3,7.36-5.46,12.89-11.15,17.44-1.44,1.15-2.9,2.28-4.35,3.41-8,6.28-7.38,17.48-1.7,24.12a41.13,41.13,0,0,0,10.61,8.47,73.83,73.83,0,0,0,32,10.26,104.88,104.88,0,0,0,55.79-10.1A65,65,0,0,0,181.36,208c.55-.67,1.14-1.31,1.74-1.94.1-.1.34-.05,1-.13-3.49,6.43-8.72,11.08-13.53,16.58,4.62-.53,15.27-12.66,20-22.08,4.61-9.12,7.34-18.67,6.83-29.06,1.75,3.47,1.43,7.11.88,10.62C194.15,209,178.67,227.6,154.63,240Z"/><path d="M114.69,160.24c2.77-.79,0,1.17.92,1.82,4.73-3.38,9.76-5.22,15.68-3.37-1.46,1.91-3.75,2.71-5.25,4.48-4.75,5.61-5.8,12.05-4.64,19a68.11,68.11,0,0,0,8.88,25c1.21,2,2.55,3.89,6,3.18-3.66-13.3-1.39-26.29,1.11-39.33A8.36,8.36,0,0,1,140,176.7c.46,4.11,1.31,4.56,4.81,2.3,3.08-2,6.31-3.8,9.06-6.28.42-.38,1.08-1.06,1.46-.63,2,2.33,3-.1,4.23-.84.91-.54,1.47-2,2.87-.79.14.12.55,0,.81-.11,2.33-.89,6.26-7.47,6-10.07-.27-2.37-.64-4.74-1-7.8,1.61,1.21,1.65,2.57,2.17,3.68s.48,2.51,1.69,3.24c1.27-.44.14-1.65,1-2.42,1.5,1.13,3.9-1.1,5.14,2.06,3.17-5.35,1-11.83,5.37-16.07,1.28,1-.44,2.23.88,3.17l8.68-4.61c.08,2.75,1.37,3.15,3.58,2.88,3.09-.38,6.14-.27,7.79,3.27,1,2.21,3.55,2.19,5.48,2.91,7.48,2.8,14.42,1.86,20.61-3.39,1.22-1,2.39-2.19,1.92-3.94s-1.2-3.59-3.55-4.12a17.34,17.34,0,0,1-8.05-3.8,1.48,1.48,0,0,0-2.47.17,2.45,2.45,0,0,1-3.64.33c-2.72-2.66-5.58-2.06-8.61-1a1.91,1.91,0,0,1-1.68.05c.82-3.57,2.7-4.51,11.27-5.66.61-7.24-9.9-13.16-19.74-11.05,0-2,0-4,0-6,0-1,.2-2.06-1-2.5s-2,.33-2.74,1.15c-3.48,3.91-6.41,8-5.79,13.71a2.56,2.56,0,0,1-.38,2.21c-1,.16-1.28-.64-1.71-1.26s-.69-2-2-1.88-1.95,1.17-2.37,2.27a29,29,0,0,0-1.47,10.81c0,.76.48,1.5,0,2.42-1.61-.45-1-2.72-2.93-3.2-3.46,2.28-2.05,6.44-3.12,10.26-1.86-2.94-1.58-5.48-1-8.12.25-1.14,1.44-2.52.18-3.5s-2.26.47-3.33,1a4.82,4.82,0,0,1-2.61.84c-.16-1.47,1.95-2,1.31-3.76-11.9,2.54-22.29,8.14-31.7,16.21-.44-1.73.91-2.66,1.41-3.88s2.23-1.7,1.76-3.53c-1.95-.34-3.71.58-5.85,1a5.55,5.55,0,0,1,2.77-3.32c1.06-.71,2.74-.52,3.29-2.47-6.28-1.41-12.45-2-19.36.1,1.6-2.42,3.81-2.47,5.52-4-3.59-1.6-6.93.22-10.25,0,.15-1.41,1.65-1.49,2-2.52-1.69-3.16-2.11-3.27-19.41-5.13.74-1.52,2.7-.89,4-2.72-4.17-2.78-8.92-2.63-13.49-3-.2-1.21,1.26-1.21,1.35-2.47-1.91-1.68-4.44-.66-6.68-1s-4.57-.45-7.48-.71a11.46,11.46,0,0,1,5.52-1.31c14.71-1.18,28.05,3.68,41.13,9.46,9.74,4.31,19.71,6.85,30.43,5.65a41.3,41.3,0,0,0,11.22-2.63c.61-.26,1.34-.41,1.34-1.3-.3-1.31-1.65,0-2.19-.93.1-.2.16-.6.34-.66a41.1,41.1,0,0,0,14.65-8.63,4.38,4.38,0,0,1,1.44-1c6.86-2.26,9.79-8.41,13.53-13.7a26,26,0,0,1,6.09-6.67c4,1.4,4.14,4.17,3.41,7.65a50.85,50.85,0,0,0-.68,8.66,3.85,3.85,0,0,0,3.1,4,21.31,21.31,0,0,1,7,3.94,17.79,17.79,0,0,1,6.51,9.35,15.5,15.5,0,0,0,14.94,11.13c.68,0,1.36,0,2,0,1.22.07,2.74-.28,3.14,1.37a2.78,2.78,0,0,1-1.56,3.17c-2.19,1-3,3-4.36,4.78-3.55,4.8-8.74,6.52-14.48,6.71a72.68,72.68,0,0,1-10.73-.43,26.88,26.88,0,0,0-24,9.11c-6.63,7.29-15,11.81-23.81,15.7-4.6,2-9.42,3.63-13.63,6.44-7.17,4.81-7.9,10.15-6.39,17.1a3.35,3.35,0,0,0,4.18,2.71,33.41,33.41,0,0,1,6.07-.39c2,0,3.72.34,4.52,2.4s-.64,3.19-2.22,4c1.35,4.43,1.35,4.4-3.38,4.51-4.55.1-9.09.27-13.64.4-3.7.12-6.34-1.15-8.15-4.73-3.4-6.76-6.59-13.55-8.52-20.91-2.31-8.8-8.73-13.38-17-15.85a7.75,7.75,0,0,0-6.44.9c-6.36,3.94-11.37,17.47-9,24.57a26.21,26.21,0,0,0,4.57,8A8.32,8.32,0,0,0,96.82,211c3.18,0,6.35-.81,9.55-.12a5.42,5.42,0,0,1,3.6,2.22c1.79,2.64,1,4.52-2.11,4.74-7.54.54-15.1.49-22.66.36-2.75-.05-4-2-3-4.63.79-2,.2-3.28-.83-4.8-3-4.47-6.49-8.68-7.74-14.17a10.63,10.63,0,0,1,1.17-8.09c1.18-2,2.47-3.93,3.84-5.81a29.63,29.63,0,0,0,5.65-17.07c.15-6.26.46-12.57-2.93-18.34,3.87,1.69,3.81,5.79,5.7,9.52,3.35-4.21,7.13-7,13-7.21-8.23,5.42-8.23,5.42-8.06,7.55,3.07-.81,5.47-3.1,8.6-3.74a36.48,36.48,0,0,1,9.63-.24c-2.19,2.11-5.3,1.16-7.13,2.95.52,1.71,1.85.28,2.65,1.11-.83,2-2.86,3.88-1.73,6.78,2.9-2.48,6-4.55,9.87-4.46.81,1,0,1.93.22,2.83,0,.05.16.09.24.07S114.52,160.4,114.69,160.24Z"/><path d="M51.89,100.07c-3.32-7-3.76-14.23-2.52-21.7,1.09,14.78,6.12,27.18,20.4,34.18C65.07,113.89,56.19,107.62,51.89,100.07Z"/><path d="M147.73,149.34c-1.7,1.33-2.27,3.5-4.31,4.69.79-5.6,5-9.34,11.26-9.68C152.14,146.29,149.62,147.25,147.73,149.34Z"/><path d="M62.32,142.9a3.75,3.75,0,0,1-2.92.31,6.68,6.68,0,0,1,7.66-2.7C65.59,141.56,63.64,141.44,62.32,142.9Z"/></g></g></svg>